<svg xmlns="http://www.w3.org/2000/svg" viewBox="0 0 200 200" width="100%" height="100%">
  <defs>
    <linearGradient id="bearGrad4" x1="0%" y1="0%" x2="100%" y2="100%">
      <stop offset="0%" stop-color="#D42B3E" />
      <stop offset="100%" stop-color="#8A1826" />
    </linearGradient>
  </defs>
  <!-- Background Circle -->
  <circle cx="100" cy="100" r="90" fill="#D42B3E" fill-opacity="0.08" stroke="#D42B3E" stroke-opacity="0.2" stroke-width="2"/>
  
  <!-- Bear Ears -->
  <circle cx="55" cy="50" r="22" fill="url(#bearGrad4)" />
  <circle cx="55" cy="50" r="12" fill="#E8495A" />
  <circle cx="145" cy="50" r="22" fill="url(#bearGrad4)" />
  <circle cx="145" cy="50" r="12" fill="#E8495A" />
  
  <!-- Bear Head -->
  <circle cx="100" cy="95" r="55" fill="url(#bearGrad4)" />
  
  <!-- Muzzle -->
  <ellipse cx="100" cy="110" rx="26" ry="20" fill="#FAFAFA" />
  <ellipse cx="100" cy="100" rx="10" ry="7" fill="#14161B" />
  <path d="M 100,107 Q 95,116 88,114 M 100,107 Q 105,116 112,114" stroke="#14161B" stroke-width="3" stroke-linecap="round" fill="none"/>
  
  <!-- Confident Eyes -->
  <circle cx="80" cy="88" r="6" fill="#FAFAFA" />
  <circle cx="81" cy="87" r="3" fill="#14161B" />
  <circle cx="120" cy="88" r="6" fill="#FAFAFA" />
  <circle cx="119" cy="87" r="3" fill="#14161B" />
  
  <!-- Flag Badge -->
  <circle cx="145" cy="135" r="24" fill="#1B1E24" stroke="#D42B3E" stroke-width="3"/>
  <line x1="137" y1="122" x2="137" y2="148" stroke="#FAFAFA" stroke-width="3" stroke-linecap="round"/>
  <path d="M 137,122 L 153,130 L 137,138 Z" fill="#D42B3E"/>
</svg>
